<svg viewBox="0 0 18 18" fill="currentColor" xmlns="http://www.w3.org/2000/svg" class="logo-monogram icon overflow-visible" width="1.25em" height="1.25em" data-v-a9244770="" data-v-b460ff61="" data-v-aeaab26f=""><g class="logo-m-brackets" data-v-aeaab26f=""><path d="m9 3.104 3.225 3.224a1.73 1.73 0 0 0 2.445 0l.23-.229a.648.648 0 0 0 0-.917L10.221.506a1.729 1.729 0 0 0-2.444 0l-3.151 3.15a.648.648 0 0 0 .243 1.07l1.341.473c.314.11.663.03.898-.205z" data-v-aeaab26f=""/><path d="m9 14.896-3.225-3.225a1.729 1.729 0 0 0-2.444 0l-.23.23a.648.648 0 0 0 0 .916l4.677 4.677c.675.675 1.77.675 2.444 0l3.15-3.15a.648.648 0 0 0-.242-1.07l-1.341-.473a.864.864 0 0 0-.898.205L9 14.896z" data-v-aeaab26f=""/></g><path class="logo-m-slash" d="M2.665 5.339a.54.54 0 0 0-.69.33 2.161 2.161 0 0 0 1.322 2.756l12.038 4.236a.54.54 0 0 0 .69-.33 2.161 2.161 0 0 0-1.322-2.756z" data-v-aeaab26f=""/></svg>