<svg xmlns="http://www.w3.org/2000/svg" fill="#fff" viewBox="0 0 300 150"><path d="M5 42.12v65.76h65.76V42.12Zm182.68 16.54c-5.85 0-9.6 3.74-9.6 8.65 0 5.33 3.14 7.85 7.87 9.87l1.63.7c3 1.3 4.77 2.1 4.77 4.35 0 1.87-1.73 3.22-4.44 3.22-3.23 0-5.05-1.68-6.45-3.97l-5.33 3.08c1.91 3.8 5.84 6.7 11.92 6.7 6.22 0 10.85-3.24 10.85-9.13 0-5.47-3.13-7.9-8.7-10.29l-1.63-.7c-2.81-1.21-4.03-2-4.03-3.97 0-1.6 1.22-2.8 3.14-2.8 1.87 0 3.08.79 4.2 2.8l5.1-3.28c-2.15-3.78-5.14-5.23-9.3-5.23m-87.4.37v22.26c0 3.27-1.36 4.11-3.51 4.11-2.25 0-3.18-1.54-4.21-3.36l-5.33 3.22c1.54 3.28 4.58 6 9.82 6 5.8 0 9.77-3.1 9.77-9.88V59.03Zm146.93.65a3.95 3.95 0 1 0 0 7.9 3.9 3.9 0 0 0 3.97-3.97 3.9 3.9 0 0 0-3.97-3.93m35.3.85V70.9h-2.94v5.24h2.94v7.2c0 5.98 2.9 8 6.93 8 2.9 0 4.58-1.04 5.56-1.83l-2.38-4.4c-.42.28-1.17.85-2.2.85-.98 0-1.64-.42-1.64-2.44v-7.38h5.1V70.9h-5.1V60.53Zm-161.9 9.96c-4.67 0-6.77 1.45-8.64 3.27l3.5 3.74a6.2 6.2 0 0 1 4.54-1.82c2.1 0 3.23 1.03 3.32 3.32h-4.63c-4.91 0-8.14 1.73-8.14 5.98 0 4.63 3.37 6.27 7.02 6.27 2.66 0 4.4-.89 5.89-3.18l-.14 2.76h6.27V79.51c0-6.26-3.89-9.02-8.98-9.02m43.63 0c-4.68 0-6.78 1.45-8.65 3.27l3.5 3.74a6.2 6.2 0 0 1 4.54-1.82c2.1 0 3.23 1.03 3.32 3.32h-4.63c-4.91 0-8.14 1.73-8.14 5.98 0 4.63 3.37 6.27 7.02 6.27 2.66 0 4.4-.89 5.9-3.18l-.15 2.76h6.27V79.51c0-6.26-3.88-9.02-8.98-9.02m49.1 0c-6.22 0-10.9 4.3-10.9 10.33 0 6.13 4.68 10.43 10.9 10.43 3.98 0 6.31-1.4 8.28-3.6l-4.26-3.74c-.93.93-2 1.87-4.02 1.87-2.85 0-4.44-2.06-4.44-4.96 0-2.8 1.59-4.81 4.44-4.81a4.7 4.7 0 0 1 3.88 2.1l4.5-3.65c-2.02-2.52-4.4-3.97-8.38-3.97m24.18 0c-2.06 0-4.4.75-5.85 4.02l.1-3.6h-6.32v19.92h6.32v-8.84c0-4.25 1.54-5.56 4.4-5.56.88 0 1.63.23 2.42.6l2.01-5.75c-.8-.42-1.77-.8-3.08-.8m30.58 0c-3.09 0-5.2 1.36-6.4 3.51l.13-3.08h-6.3v29.83h6.3V88.16c1.03 1.83 3.09 3.1 6.13 3.1 4.86 0 9.03-4.31 9.03-10.44s-4.07-10.33-8.89-10.33m-136.7.42 10.81 20.34h.6l10.67-20.34h-6.4l-2.72 5.94c-.89 2-1.54 5.28-1.54 5.28s-.7-3.27-1.64-5.28l-2.8-5.94zm112.62 0v19.92h6.31V70.91ZM55.05 71.96c3.93 0 6.76 1.37 8.8 4.95L59.02 80c-1.06-1.9-2.2-2.65-3.98-2.65-1.8 0-2.95 1.15-2.95 2.65 0 1.85 1.14 2.6 3.8 3.75l1.54.66c5.25 2.26 8.21 4.55 8.21 9.71 0 5.56-4.37 8.61-10.24 8.61-5.73 0-9.44-2.73-11.26-6.32l5.02-2.91c1.33 2.16 3.05 3.75 6.1 3.75 2.56 0 4.2-1.28 4.2-3.05 0-2.12-1.68-2.87-4.5-4.1l-1.55-.66c-4.46-1.9-7.42-4.28-7.42-9.31 0-4.64 3.53-8.17 9.05-8.17m-20.41.35h6.17v21.1c0 6.4-3.75 9.31-9.22 9.31-4.95 0-7.82-2.56-9.27-5.64l5.03-3.05c.97 1.72 1.85 3.18 3.97 3.18 2.03 0 3.31-.8 3.31-3.88zm231.5 3.74c2.67 0 4.36 1.83 4.36 4.77 0 3.14-1.69 4.91-4.35 4.91-2.71 0-4.5-1.77-4.5-4.9 0-2.95 1.79-4.78 4.5-4.78m-147.12 6.69h4.3v.8c0 1.68-1.31 2.8-3.88 2.8-1.78 0-2.71-.65-2.71-1.78s.7-1.82 2.29-1.82m43.63 0h4.3v.8c0 1.68-1.3 2.8-3.88 2.8-1.78 0-2.71-.65-2.71-1.78s.7-1.82 2.29-1.82"/></svg>
